<?xml version="1.0" standalone="no"?>
<!DOCTYPE svg PUBLIC "-//W3C//DTD SVG 20010904//EN"
 "http://www.w3.org/TR/2001/REC-SVG-20010904/DTD/svg10.dtd">
<svg version="1.0" xmlns="http://www.w3.org/2000/svg"
 width="1024.000000pt" height="1024.000000pt" viewBox="0 0 1024.000000 1024.000000"
 preserveAspectRatio="xMidYMid meet">

<g transform="translate(0.000000,1024.000000) scale(0.100000,-0.100000)"
fill="#ffffff" stroke="none">
<path d="M4745 8825 c-627 -58 -1220 -276 -1762 -647 -398 -273 -787 -693
-1027 -1112 -292 -508 -446 -1029 -481 -1628 -6 -109 1 -148 30 -148 31 0 43
28 44 106 2 136 35 390 76 584 210 997 866 1867 1762 2338 504 264 982 396
1523 420 179 8 487 -1 640 -18 851 -95 1677 -511 2226 -1121 537 -596 844
-1309 908 -2113 16 -197 24 -217 71 -182 18 13 18 21 7 189 -51 726 -302 1384
-751 1967 -550 713 -1427 1214 -2347 1339 -305 42 -643 51 -919 26z"/>
<path d="M4869 8403 c-13 -3 -17 -29 -22 -155 -4 -83 -7 -189 -7 -235 l0 -83
30 0 30 0 2 181 3 181 130 -181 c123 -172 131 -181 162 -181 19 0 36 6 38 13
2 6 6 114 7 240 l3 227 -32 0 -33 0 -2 -167 -3 -167 -29 45 c-16 24 -69 99
-119 167 -93 126 -100 131 -158 115z"/>
<path d="M5421 8379 c-5 -13 -7 -27 -5 -30 2 -3 30 -9 63 -12 33 -3 65 -8 71
-12 7 -4 8 -25 4 -58 -11 -90 -43 -301 -50 -324 -5 -17 -2 -22 12 -21 11 1 34
-2 52 -6 23 -6 33 -4 36 6 2 7 14 92 26 188 13 96 27 182 31 191 8 15 15 15
71 4 35 -8 64 -13 64 -12 1 1 4 15 6 32 l3 30 -105 17 c-58 9 -142 19 -187 23
-81 7 -83 7 -92 -16z"/>
<path d="M4515 8348 c-3 -7 12 -112 33 -233 l38 -220 40 3 c21 2 43 7 48 12 5
5 -1 56 -13 117 -33 170 -51 276 -51 306 0 25 -3 27 -45 27 -27 0 -48 -5 -50
-12z"/>
<path d="M4125 8274 c-38 -14 -85 -31 -102 -36 -18 -6 -33 -15 -33 -20 0 -4
22 -76 49 -160 28 -84 57 -179 66 -212 18 -63 24 -65 97 -37 l26 10 -23 58
c-13 32 -26 72 -30 90 -6 31 -6 31 47 42 96 21 148 74 148 151 0 49 -20 90
-56 119 -37 29 -102 27 -189 -5z m106 -54 c10 -6 26 -24 35 -41 28 -56 -14
-112 -91 -121 -27 -3 -30 0 -47 57 -10 33 -21 68 -24 78 -10 30 83 50 127 27z"/>
<path d="M6054 8223 c-21 -27 -77 -93 -124 -148 -47 -55 -100 -119 -118 -142
l-32 -41 36 -12 c35 -12 37 -11 63 21 14 18 31 38 36 45 8 10 27 8 90 -10 l80
-24 3 -75 c3 -72 4 -75 30 -81 15 -3 37 -8 50 -12 21 -6 22 -4 22 68 0 41 -3
156 -7 255 l-6 181 -37 11 c-21 6 -40 11 -42 11 -3 0 -23 -21 -44 -47z m32
-250 c-3 -4 -112 25 -124 33 -2 1 25 37 60 80 l63 77 3 -93 c1 -51 1 -95 -2
-97z"/>
<path d="M3690 8112 c-30 -4 -230 -102 -230 -113 0 -4 41 -95 90 -203 50 -107
90 -200 90 -205 0 -21 21 -20 64 1 26 12 45 25 43 28 -21 37 -77 162 -77 174
0 21 43 30 72 15 12 -6 45 -32 72 -56 70 -63 74 -64 134 -36 l52 24 -52 42
c-29 23 -77 56 -105 73 -42 25 -50 34 -40 43 40 32 39 131 -1 181 -18 22 -71
38 -112 32z m16 -87 c31 -21 47 -66 35 -97 -9 -24 -96 -86 -106 -76 -3 2 -18
37 -34 77 l-30 72 42 19 c51 24 66 24 93 5z"/>
<path d="M6476 8017 c-25 -50 -74 -143 -110 -205 l-64 -113 44 -21 c24 -12 46
-20 49 -17 2 3 22 36 42 74 21 38 43 70 49 72 7 2 24 -7 39 -20 26 -22 28 -30
33 -121 l5 -97 48 -25 c27 -13 50 -24 52 -24 3 0 -10 183 -16 218 -4 19 1 23
37 29 77 12 133 98 107 165 -13 35 -73 78 -183 134 l-87 44 -45 -93z m162 -26
c42 -21 66 -62 56 -95 -10 -35 -46 -66 -75 -66 -22 0 -95 24 -107 35 -3 3 29
64 65 123 16 27 15 27 61 3z"/>
<path d="M6935 7703 c-38 -59 -94 -140 -122 -181 -29 -40 -53 -77 -53 -82 0
-6 17 -20 37 -33 l37 -24 24 36 c68 100 140 203 185 264 27 37 48 69 46 71
-40 30 -77 56 -80 56 -2 0 -35 -48 -74 -107z"/>
<path d="M3107 7762 c-45 -32 -46 -16 22 -252 28 -96 51 -179 51 -185 0 -5 4
-16 9 -24 7 -11 14 -10 39 8 l31 21 -20 57 c-10 31 -18 57 -17 58 2 2 28 18
58 36 30 18 58 37 61 42 8 12 46 -8 84 -44 l30 -28 45 30 c24 16 46 31 48 33
3 4 -380 266 -398 273 -3 1 -22 -10 -43 -25z m137 -146 c42 -30 63 -52 55 -55
-8 -2 -31 -15 -52 -28 -21 -13 -42 -21 -47 -18 -10 6 -50 127 -50 152 0 17 5
15 94 -51z"/>
<path d="M4845 7680 c-530 -60 -1070 -310 -1452 -675 -450 -427 -700 -1005
-730 -1682 l-6 -143 -615 -2 c-573 -3 -616 -4 -626 -20 -8 -13 -8 -23 0 -35
11 -17 198 -18 3699 -18 3501 0 3688 1 3699 18 8 12 8 22 0 35 -10 16 -53 17
-621 20 l-610 2 -12 179 c-23 348 -82 605 -206 895 -241 565 -737 1032 -1350
1272 -132 51 -370 115 -525 139 -123 20 -521 29 -645 15z m335 -1290 l0 -1210
-65 0 -65 0 0 1203 c0 662 3 1207 7 1210 3 4 33 7 65 7 l58 0 0 -1210z m-210
-5 l0 -1205 -70 0 -70 0 0 1199 0 1200 28 4 c15 2 46 5 70 6 l42 1 0 -1205z
m396 1195 l34 0 0 -1200 0 -1200 -65 0 -65 0 0 1206 0 1207 31 -7 c17 -3 47
-6 65 -6z m-616 -1211 l0 -1189 -59 0 c-52 0 -59 2 -65 23 -3 12 -6 540 -6
1174 0 915 2 1153 12 1160 17 11 101 30 111 26 4 -2 7 -539 7 -1194z m853
1169 c16 -8 17 -75 17 -1183 l0 -1175 -65 0 -65 0 0 1191 0 1190 48 -7 c26 -3
55 -11 65 -16z m-1063 -1188 l0 -1170 -65 0 -65 0 -1 1083 c-1 595 -3 1112 -5
1149 -2 42 0 70 7 74 13 8 97 32 117 33 9 1 12 -239 12 -1169z m1235 1152 l60
-18 3 -1152 2 -1152 -70 0 -70 0 0 1170 c0 644 3 1170 8 1170 4 0 34 -8 67
-18z m-1455 -1187 l0 -1135 -65 0 c-59 0 -65 2 -70 23 -3 12 -4 512 -3 1112
l3 1090 55 22 c30 12 61 23 68 23 9 0 12 -234 12 -1135z m1698 1105 l43 -19
-1 -1096 c-1 -603 -4 -1103 -7 -1111 -4 -10 -23 -14 -69 -14 l-64 0 0 1136 0
1136 28 -7 c15 -3 46 -15 70 -25z m243 -529 c0 -229 3 -707 5 -1063 l4 -648
-65 0 -65 0 0 1096 0 1095 60 -32 60 -32 1 -416z m-2161 -621 l0 -1090 -60 0
-60 0 0 108 c0 59 -1 530 -3 1047 -2 517 -2 948 1 957 4 15 92 68 114 68 4 0
8 -490 8 -1090z m-210 -50 l0 -1041 -67 3 -68 3 -2 980 c-2 539 0 988 3 998 5
15 116 97 131 97 1 0 3 -468 3 -1040z m2552 979 l38 -24 0 -997 0 -998 -65 0
-65 0 0 268 c-1 147 -3 615 -6 1041 l-6 774 34 -20 c18 -11 50 -30 70 -44z
m-2772 -1049 l0 -970 -65 0 -65 0 0 914 0 914 63 56 c34 31 63 56 65 56 1 0 2
-436 2 -970z m2971 899 l59 -51 0 -909 0 -909 -65 0 -65 0 0 438 c0 240 -3
660 -7 933 -5 456 -3 549 13 549 4 0 33 -23 65 -51z m-3181 -994 l0 -875 -60
0 -60 0 0 816 0 816 51 59 c28 33 55 59 60 59 5 0 9 -362 9 -875z m3389 803
l61 -63 0 -807 0 -808 -65 0 -65 0 0 870 c0 479 2 870 4 870 2 0 31 -28 65
-62z m-3599 -913 l0 -765 -65 0 -65 0 0 673 0 672 62 93 c34 50 64 92 65 92 2
0 3 -344 3 -765z m3809 666 l61 -89 0 -671 0 -671 -65 0 -65 0 0 760 c0 418 2
760 4 760 2 0 31 -40 65 -89z m-4019 -826 l0 -605 -65 0 -65 0 0 458 c0 392 2
466 16 513 17 57 99 239 108 239 3 0 5 -272 6 -605z m4250 408 l40 -101 0
-456 0 -456 -60 0 -60 0 0 493 c0 272 -2 543 -5 603 l-6 109 25 -45 c14 -25
43 -91 66 -147z m-4462 -768 c0 -121 -3 -226 -6 -232 -2 -8 -21 -13 -44 -13
l-39 0 6 123 c9 196 30 358 66 516 7 30 18 -218 17 -394z m4633 195 c12 -69
23 -180 26 -277 l6 -163 -42 0 -41 0 1 323 c0 294 2 318 15 277 8 -25 23 -97
35 -160z"/>
<path d="M7270 7458 c-47 -22 -128 -59 -180 -82 -52 -23 -106 -48 -119 -55
l-24 -13 26 -25 25 -25 56 26 57 27 59 -52 c33 -29 60 -58 60 -65 0 -6 -14
-43 -30 -80 l-31 -68 33 -25 c18 -14 36 -26 40 -26 10 0 223 445 216 450 -2 1
-19 14 -39 28 -20 15 -42 27 -50 26 -8 0 -52 -18 -99 -41z m44 -118 l-45 -91
-49 43 c-27 23 -48 44 -46 45 10 10 163 91 173 92 7 1 -8 -39 -33 -89z"/>
<path d="M2749 7464 c-83 -42 -138 -130 -139 -220 0 -63 14 -106 54 -162 102
-144 312 -130 403 25 22 38 24 48 14 70 l-12 26 -50 -56 c-61 -69 -102 -84
-172 -63 -67 20 -103 50 -133 111 -45 93 -24 162 65 212 41 24 47 31 40 50
-12 32 -20 33 -70 7z"/>
<path d="M7658 6939 c-26 -14 -22 -33 16 -86 191 -269 373 -705 445 -1063 29
-151 61 -404 61 -494 0 -32 5 -46 17 -50 30 -12 38 12 36 102 -9 298 -90 663
-218 983 -75 185 -264 537 -324 601 -12 13 -21 14 -33 7z"/>
<path d="M2440 6778 c-246 -412 -390 -870 -431 -1366 -10 -127 -10 -145 4
-159 33 -33 44 -10 51 108 21 350 93 662 227 990 58 143 175 372 226 442 37
53 40 80 6 85 -18 3 -32 -14 -83 -100z"/>
<path d="M3600 4916 c-296 -51 -591 -150 -880 -295 -359 -180 -551 -367 -589
-575 -25 -134 -5 -204 84 -293 114 -114 283 -170 540 -180 284 -10 551 50 818
183 48 24 87 41 87 36 0 -4 -9 -34 -21 -67 -37 -105 -24 -157 44 -177 54 -16
157 2 201 36 28 21 36 37 50 96 18 82 39 128 153 342 66 122 84 164 81 189 -4
45 -49 70 -136 76 -68 5 -104 -1 -410 -66 -78 -17 -222 -45 -319 -62 -98 -17
-185 -35 -195 -40 -43 -23 -50 -81 -13 -105 37 -24 140 -13 425 45 262 54 271
53 203 -23 -173 -193 -592 -335 -877 -297 -173 23 -266 68 -331 160 -27 39
-30 50 -30 120 0 67 4 85 34 145 39 80 142 190 236 253 215 144 568 286 820
329 111 20 246 15 293 -10 36 -19 62 -67 62 -114 0 -44 23 -56 104 -56 85 0
136 24 204 98 103 112 77 198 -73 246 -60 20 -96 23 -250 26 -153 3 -200 0
-315 -20z"/>
<path d="M5950 4906 c-30 -6 -65 -17 -77 -24 -30 -17 -63 -61 -63 -85 0 -11
-66 -158 -146 -326 -360 -751 -367 -770 -306 -831 45 -44 118 -62 282 -67 513
-18 1065 236 1227 565 28 55 38 90 41 136 5 87 -16 123 -93 161 -58 29 -65 30
-185 29 -100 -1 -144 -6 -220 -26 -130 -35 -313 -108 -447 -179 -62 -33 -113
-57 -113 -53 0 17 203 372 290 509 73 114 77 126 48 160 -38 43 -129 55 -238
31z m618 -656 c46 -43 16 -118 -87 -219 -130 -127 -294 -222 -481 -277 -80
-24 -114 -28 -212 -29 -97 0 -120 3 -134 17 -46 46 59 182 225 293 228 151
437 232 602 234 53 1 69 -3 87 -19z"/>
<path d="M5040 4877 c-124 -35 -237 -166 -216 -250 16 -63 195 -77 307 -23
107 50 182 164 148 225 -8 14 -28 32 -43 40 -40 19 -142 23 -196 8z"/>
<path d="M7745 4880 c-95 -20 -169 -68 -213 -137 -74 -116 -51 -158 89 -170
87 -7 151 9 219 56 88 60 136 147 114 206 -15 38 -127 63 -209 45z"/>
<path d="M4740 4392 c-30 -15 -46 -40 -125 -197 -152 -302 -215 -448 -215
-499 0 -105 143 -152 341 -111 123 24 269 103 269 145 0 35 -23 41 -83 20 -61
-22 -137 -26 -168 -10 -42 23 -18 103 106 350 42 85 92 181 111 212 28 46 33
61 25 76 -15 28 -32 32 -134 32 -68 0 -101 -5 -127 -18z"/>
<path d="M7411 4392 c-38 -20 -39 -21 -216 -383 -141 -290 -157 -336 -134
-377 20 -37 58 -53 128 -53 112 -1 191 45 191 109 0 77 132 381 259 597 48 81
51 102 15 115 -45 17 -205 12 -243 -8z"/>
<path d="M2040 3339 c-9 -16 -8 -25 6 -40 16 -18 39 -19 624 -19 l606 0 35
-36 c18 -20 82 -76 141 -124 372 -306 812 -496 1313 -567 167 -24 534 -23 705
0 555 78 1039 305 1440 676 l55 51 597 0 c529 0 598 2 612 16 19 19 20 36 4
52 -9 9 -705 12 -3070 12 l-3057 0 -11 -21z m4780 -66 c0 -9 -31 -35 -150
-127 -125 -96 -196 -143 -305 -203 -591 -327 -1301 -410 -1941 -228 -208 59
-465 171 -651 283 -78 47 -270 188 -343 251 l-35 30 1713 1 c941 0 1712 -3
1712 -7z"/>
<path d="M2532 3188 c-23 -23 -12 -47 60 -135 342 -420 773 -745 1269 -956
435 -185 1002 -281 1459 -248 579 43 1042 192 1513 487 327 206 643 488 845
755 47 63 52 83 20 100 -19 10 -28 4 -92 -67 -147 -163 -395 -404 -511 -496
-606 -482 -1310 -719 -2060 -695 -696 23 -1308 243 -1865 671 -124 96 -426
389 -525 510 -69 84 -89 98 -113 74z"/>
<path d="M3762 2513 c-44 -17 -30 -93 18 -93 33 0 50 17 50 52 0 36 -32 56
-68 41z"/>
<path d="M6420 2500 c-24 -24 -24 -29 -4 -58 17 -24 53 -29 72 -10 19 19 15
66 -7 78 -28 14 -38 13 -61 -10z"/>
<path d="M4227 2328 c-21 -90 -40 -172 -43 -184 -4 -17 1 -22 32 -32 21 -6 40
-10 42 -8 2 2 10 33 18 67 8 35 19 68 23 72 5 5 32 1 62 -7 69 -21 74 -20 87
8 11 25 10 25 -64 42 l-76 16 7 45 c12 84 17 86 124 53 36 -11 66 -18 67 -17
1 1 5 13 9 27 6 25 4 26 -112 53 -65 15 -123 27 -128 27 -6 0 -27 -73 -48
-162z"/>
<path d="M5804 2459 l-31 -9 -17 -162 c-9 -90 -20 -181 -23 -204 l-5 -41 31 5
c27 4 31 8 32 36 2 71 10 80 77 92 l62 11 27 -44 c25 -39 31 -43 58 -37 68 13
69 7 -9 127 -39 62 -90 140 -111 174 -42 66 -42 66 -91 52z m61 -150 c20 -34
33 -64 30 -68 -4 -3 -24 -11 -46 -17 l-39 -12 0 33 c0 37 11 125 16 125 2 0
19 -28 39 -61z"/>
<path d="M4750 2342 c0 -38 -25 -244 -36 -294 -5 -24 -2 -27 31 -34 20 -3 38
-4 41 -1 5 5 54 324 54 355 0 8 -16 12 -45 12 l-45 0 0 -38z"/>
<path d="M5400 2372 l-25 -3 3 -114 c2 -63 0 -115 -5 -114 -4 0 -46 51 -93
112 -79 104 -88 112 -123 115 l-37 3 0 -190 0 -191 29 0 29 0 -5 125 c-3 72
-2 125 4 125 5 0 51 -56 102 -125 89 -119 95 -125 129 -125 l35 0 -6 192 c-4
105 -8 192 -9 192 -2 1 -14 0 -28 -2z"/>
</g>
</svg>
